<?xml version="1.0" encoding="utf-8"?>
<!-- Generator: Adobe Illustrator 20.0.0, SVG Export Plug-In . SVG Version: 6.00 Build 0)  -->
<svg version="1.1" id="Layer_1" xmlns="http://www.w3.org/2000/svg" xmlns:xlink="http://www.w3.org/1999/xlink" x="0px" y="0px"
	 viewBox="0 0 230.8 54.2" style="enable-background:new 0 0 230.8 54.2;" xml:space="preserve">
<style type="text/css">
	.st0{fill:#64FF07;}
	.st1{fill:#123644;}
</style>
<path class="st0" d="M142.5,5.8c0.2,0,0.4,0.1,0.5,0.2s0.2,0.3,0.2,0.5v1.9c0,0.2-0.1,0.4-0.2,0.5c-0.1,0.1-0.3,0.2-0.5,0.2h-4.7
	v14.4c0,0.2-0.1,0.4-0.2,0.5c-0.1,0.1-0.3,0.2-0.5,0.2H135c-0.2,0-0.4-0.1-0.5-0.2s-0.2-0.3-0.2-0.5V9.1h-4.7
	c-0.2,0-0.4-0.1-0.5-0.2c-0.1-0.1-0.2-0.3-0.2-0.5V6.5c0-0.2,0.1-0.4,0.2-0.5c0.1-0.1,0.3-0.2,0.5-0.2H142.5z"/>
<path class="st0" d="M160.4,20.9c0.2,0,0.4,0.1,0.5,0.2s0.2,0.3,0.2,0.5v1.9c0,0.2-0.1,0.4-0.2,0.5c-0.1,0.1-0.3,0.2-0.5,0.2h-11.5
	c-0.2,0-0.4-0.1-0.5-0.2s-0.2-0.3-0.2-0.5v-17c0-0.2,0.1-0.4,0.2-0.5c0.1-0.1,0.3-0.2,0.5-0.2h11.3c0.2,0,0.4,0.1,0.5,0.2
	s0.2,0.3,0.2,0.5v1.9c0,0.2-0.1,0.4-0.2,0.5c-0.1,0.1-0.3,0.2-0.5,0.2h-8.5v4.2h7.9c0.2,0,0.4,0.1,0.5,0.2c0.1,0.1,0.2,0.3,0.2,0.5
	v1.9c0,0.2-0.1,0.4-0.2,0.5c-0.1,0.1-0.3,0.2-0.5,0.2h-7.9V21L160.4,20.9L160.4,20.9z"/>
<path class="st0" d="M177.6,24.2c-0.3,0-0.5-0.1-0.7-0.2c-0.2-0.2-0.3-0.3-0.3-0.4l-7.3-10.9v10.8c0,0.2-0.1,0.4-0.2,0.5
	c-0.1,0.1-0.3,0.2-0.5,0.2h-2.1c-0.2,0-0.4-0.1-0.5-0.2s-0.2-0.3-0.2-0.5v-17c0-0.2,0.1-0.4,0.2-0.5c0.1-0.1,0.3-0.2,0.5-0.2h1.8
	c0.3,0,0.5,0.1,0.7,0.2c0.2,0.2,0.3,0.3,0.3,0.4l7.3,10.9V6.5c0-0.2,0.1-0.4,0.2-0.5c0.1-0.1,0.3-0.2,0.5-0.2h2.1
	c0.2,0,0.4,0.1,0.5,0.2s0.2,0.3,0.2,0.5v17c0,0.2-0.1,0.4-0.2,0.5c-0.1,0.1-0.3,0.2-0.5,0.2H177.6z"/>
<path class="st0" d="M196.9,24.2c-0.3,0-0.5-0.1-0.7-0.2c-0.2-0.2-0.3-0.3-0.3-0.4l-7.3-10.9v10.8c0,0.2-0.1,0.4-0.2,0.5
	c-0.1,0.1-0.3,0.2-0.5,0.2h-2.1c-0.2,0-0.4-0.1-0.5-0.2s-0.2-0.3-0.2-0.5v-17c0-0.2,0.1-0.4,0.2-0.5c0.1-0.1,0.3-0.2,0.5-0.2h1.8
	c0.3,0,0.5,0.1,0.7,0.2c0.2,0.2,0.3,0.3,0.3,0.4l7.3,10.9V6.5c0-0.2,0.1-0.4,0.2-0.5c0.1-0.1,0.3-0.2,0.5-0.2h2.1
	c0.2,0,0.4,0.1,0.5,0.2s0.2,0.3,0.2,0.5v17c0,0.2-0.1,0.4-0.2,0.5c-0.1,0.1-0.3,0.2-0.5,0.2H196.9z"/>
<path class="st0" d="M204.6,24.2c-0.2,0-0.4-0.1-0.5-0.2s-0.2-0.3-0.2-0.5v-17c0-0.2,0.1-0.4,0.2-0.5c0.1-0.1,0.3-0.2,0.5-0.2h2.1
	c0.2,0,0.4,0.1,0.5,0.2s0.2,0.3,0.2,0.5v17c0,0.2-0.1,0.4-0.2,0.5c-0.1,0.1-0.3,0.2-0.5,0.2H204.6z"/>
<path class="st0" d="M218.6,5.5c1.2,0,2.2,0.2,3.1,0.5c0.9,0.3,1.6,0.7,2.2,1.2c0.6,0.5,1,1,1.4,1.6c0.3,0.6,0.5,1.1,0.5,1.6
	c0,0.2,0,0.4-0.2,0.5c-0.1,0.1-0.3,0.2-0.5,0.2h-1.8c-0.3,0-0.5-0.1-0.7-0.2c-0.1-0.1-0.3-0.3-0.4-0.5c-0.3-0.4-0.7-0.8-1.2-1.1
	s-1.3-0.5-2.4-0.5c-0.5,0-0.9,0-1.3,0.1c-0.4,0.1-0.8,0.2-1.1,0.4s-0.5,0.4-0.7,0.7s-0.3,0.6-0.3,0.9c0,0.4,0.1,0.7,0.2,1
	c0.2,0.3,0.4,0.5,0.8,0.7c0.4,0.2,0.9,0.4,1.6,0.5c0.6,0.2,1.5,0.3,2.4,0.6c1,0.2,2,0.5,2.7,0.8c0.8,0.3,1.4,0.7,1.9,1.1
	c0.5,0.4,0.8,0.9,1.1,1.5c0.2,0.6,0.4,1.2,0.4,1.9c0,0.8-0.2,1.5-0.5,2.2c-0.4,0.7-0.8,1.3-1.5,1.7c-0.6,0.5-1.4,0.9-2.4,1.1
	c-0.9,0.3-2,0.4-3.2,0.4c-1,0-1.9-0.1-2.8-0.4c-0.9-0.2-1.7-0.6-2.4-1s-1.2-1-1.7-1.6c-0.4-0.6-0.7-1.3-0.7-2.1c0-0.2,0-0.4,0.2-0.5
	c0.1-0.1,0.3-0.2,0.5-0.2h1.8c0.3,0,0.5,0.1,0.7,0.2s0.3,0.3,0.4,0.5c0.1,0.2,0.3,0.5,0.4,0.7c0.2,0.2,0.4,0.4,0.7,0.6
	s0.7,0.3,1.1,0.4c0.4,0.1,1,0.2,1.7,0.2c0.5,0,1,0,1.5-0.1s0.9-0.2,1.3-0.4c0.4-0.2,0.7-0.4,0.9-0.7c0.2-0.3,0.3-0.6,0.3-1
	s-0.1-0.7-0.4-0.9c-0.2-0.2-0.6-0.5-1.1-0.6c-0.5-0.2-1.1-0.3-1.9-0.5s-1.6-0.4-2.5-0.6s-1.6-0.5-2.3-0.7c-0.7-0.3-1.2-0.6-1.6-1.1
	c-0.4-0.4-0.7-0.9-1-1.5c-0.2-0.6-0.3-1.2-0.3-2s0.2-1.5,0.5-2.2s0.8-1.2,1.4-1.7c0.6-0.5,1.3-0.8,2.2-1.1
	C216.7,5.7,217.6,5.5,218.6,5.5z"/>
<path class="st1" d="M140.7,42.9c0-0.2,0.1-0.4,0.3-0.5c0.1-0.1,0.3-0.2,0.5-0.2h2.1c0.2,0,0.4,0.1,0.5,0.2c0.1,0.1,0.2,0.3,0.2,0.5
	c-0.1,0.7-0.2,1.4-0.5,2.2c-0.3,0.7-0.8,1.4-1.4,1.9s-1.4,1-2.4,1.4s-2.1,0.6-3.5,0.6c-1.2,0-2.3-0.2-3.2-0.5
	c-0.9-0.4-1.7-0.9-2.4-1.5c-0.6-0.6-1.2-1.4-1.5-2.3c-0.4-0.9-0.6-1.9-0.6-2.9c0-0.7-0.1-1.4-0.1-2.2s0-1.5,0.1-2.2
	c0.1-1,0.3-2,0.6-2.9c0.4-0.9,0.9-1.7,1.5-2.3c0.6-0.6,1.4-1.1,2.4-1.5c0.9-0.4,2-0.5,3.2-0.5c1.4,0,2.5,0.2,3.5,0.6
	s1.8,0.8,2.4,1.4c0.6,0.6,1.1,1.2,1.4,2c0.3,0.7,0.5,1.4,0.5,2.1c0,0.2,0,0.4-0.2,0.5c-0.1,0.1-0.3,0.2-0.5,0.2h-2.1
	c-0.2,0-0.3-0.1-0.5-0.2c-0.2-0.1-0.3-0.3-0.3-0.5c-0.1-0.3-0.2-0.7-0.4-1s-0.5-0.6-0.8-0.9c-0.3-0.3-0.8-0.5-1.3-0.6
	c-0.5-0.2-1.1-0.2-1.8-0.2s-1.3,0.1-1.8,0.3s-0.9,0.5-1.3,0.8c-0.3,0.4-0.6,0.8-0.8,1.3s-0.3,1-0.3,1.5c0,0.7-0.1,1.4-0.1,2.2
	s0,1.5,0.1,2.2c0,0.6,0.1,1.1,0.3,1.6s0.4,0.9,0.8,1.2c0.3,0.3,0.8,0.6,1.3,0.8s1.1,0.3,1.8,0.3s1.3-0.1,1.8-0.2
	c0.5-0.2,0.9-0.4,1.3-0.6c0.3-0.3,0.6-0.6,0.8-0.9C140.5,43.6,140.7,43.2,140.7,42.9z"/>
<path class="st1" d="M180.3,30.2c0.3,0,0.5,0.1,0.6,0.2c0.1,0.2,0.3,0.4,0.4,0.7l6.6,16.9c0,0.1,0,0.1,0,0.2c0,0.2-0.1,0.4-0.2,0.5
	c-0.1,0.1-0.3,0.2-0.5,0.2h-1.9c-0.4,0-0.6-0.1-0.7-0.2c-0.1-0.2-0.2-0.3-0.3-0.4l-1.2-3h-8.5l-1.2,3c-0.1,0.1-0.2,0.3-0.3,0.4
	c-0.1,0.2-0.4,0.2-0.7,0.2h-1.9c-0.2,0-0.4-0.1-0.5-0.2c-0.1-0.1-0.2-0.3-0.2-0.5c0-0.1,0-0.1,0-0.2l6.6-16.9
	c0.1-0.3,0.2-0.5,0.4-0.7c0.1-0.2,0.4-0.2,0.6-0.2C177.4,30.2,180.3,30.2,180.3,30.2z M181.7,42l-2.9-7.6l-2.9,7.6H181.7z"/>
<path class="st1" d="M203.5,42.9c0-0.2,0.1-0.4,0.3-0.5c0.1-0.1,0.3-0.2,0.5-0.2h2.1c0.2,0,0.4,0.1,0.5,0.2c0.1,0.1,0.2,0.3,0.2,0.5
	c-0.1,0.7-0.2,1.4-0.5,2.2c-0.3,0.7-0.8,1.4-1.4,1.9c-0.6,0.6-1.4,1-2.4,1.4s-2.1,0.6-3.5,0.6c-1.2,0-2.3-0.2-3.2-0.5
	c-0.9-0.4-1.7-0.9-2.4-1.5c-0.6-0.6-1.2-1.4-1.5-2.3c-0.4-0.9-0.6-1.9-0.6-2.9c0-0.7-0.1-1.4-0.1-2.2s0-1.5,0.1-2.2
	c0.1-1,0.3-2,0.6-2.9c0.4-0.9,0.9-1.7,1.5-2.3c0.6-0.6,1.4-1.1,2.4-1.5c0.9-0.4,2-0.5,3.2-0.5c1.4,0,2.5,0.2,3.5,0.6
	s1.8,0.8,2.4,1.4c0.6,0.6,1.1,1.2,1.4,2c0.3,0.7,0.5,1.4,0.5,2.1c0,0.2,0,0.4-0.2,0.5c-0.1,0.1-0.3,0.2-0.5,0.2h-2.1
	c-0.2,0-0.3-0.1-0.5-0.2c-0.2-0.1-0.3-0.3-0.3-0.5c-0.1-0.3-0.2-0.7-0.4-1s-0.5-0.6-0.8-0.9c-0.3-0.3-0.8-0.5-1.3-0.6
	c-0.5-0.2-1.1-0.2-1.8-0.2s-1.3,0.1-1.8,0.3s-0.9,0.5-1.3,0.8c-0.3,0.4-0.6,0.8-0.8,1.3s-0.3,1-0.3,1.5c0,0.7-0.1,1.4-0.1,2.2
	s0,1.5,0.1,2.2c0,0.6,0.1,1.1,0.3,1.6s0.4,0.9,0.8,1.2c0.3,0.3,0.8,0.6,1.3,0.8s1.1,0.3,1.8,0.3s1.3-0.1,1.8-0.2
	c0.5-0.2,0.9-0.4,1.3-0.6c0.3-0.3,0.6-0.6,0.8-0.9C203.3,43.6,203.4,43.2,203.5,42.9z"/>
<path class="st1" d="M225.2,30.3c0.2,0,0.4,0.1,0.5,0.2s0.2,0.3,0.2,0.5v17c0,0.2-0.1,0.4-0.2,0.5c-0.1,0.1-0.3,0.2-0.5,0.2h-2.1
	c-0.2,0-0.4-0.1-0.5-0.2c-0.1-0.1-0.2-0.3-0.2-0.5v-6.9h-7.9V48c0,0.2-0.1,0.4-0.2,0.5c-0.1,0.1-0.3,0.2-0.5,0.2h-2.1
	c-0.2,0-0.4-0.1-0.5-0.2S211,48.2,211,48V31c0-0.2,0.1-0.4,0.2-0.5c0.1-0.1,0.3-0.2,0.5-0.2h2.1c0.2,0,0.4,0.1,0.5,0.2
	s0.2,0.3,0.2,0.5v6.7h7.9V31c0-0.2,0.1-0.4,0.2-0.5c0.1-0.1,0.3-0.2,0.5-0.2H225.2z"/>
<path class="st0" d="M71.3,9.2l0.9,3.1l6.7,23.2l7.7-29.9H98l-3,11.6l7.2,18.2l8.5-29.9h12.2l-14,43.2H96.2l-6.5-15.6l-4.9,15.6
	H71.9l-6.6-20.6L71.3,9.2z"/>
<path class="st1" d="M16.5,5.6l8.6,29.9l7.7-29.9h11.4l-3,11.6l7.2,18.2l8.5-29.9h12.2l-14,43.2H42.5L36,33.1l-4.9,15.6h-13L4.3,5.6
	H16.5z"/>
<polygon class="st1" points="31.7,5.6 24.4,5.6 28.9,16.4 "/>
<polygon class="st0" points="85.4,5.6 78,5.6 82.6,16.4 "/>
<path class="st0" d="M160.7,39.6c0-2.6,1-5.1,2.6-6.9c-1.7-1.6-3.9-2.6-6.4-2.6c-2.6,0-4.9,1.1-6.6,2.8c1.5,1.8,2.4,4.2,2.4,6.7
	c0,2.6-0.9,4.9-2.4,6.7c1.7,1.7,4,2.8,6.6,2.8c2.5,0,4.8-1,6.5-2.6C161.7,44.7,160.7,42.3,160.7,39.6z"/>
<path class="st0" d="M164.3,33.9c-1.3,1.5-2.1,3.5-2.1,5.7s0.8,4.2,2.1,5.7c1.2-1.6,1.8-3.6,1.8-5.7
	C166.2,37.5,165.5,35.5,164.3,33.9z"/>
<path class="st0" d="M149.2,34.2c-1.1,1.5-1.7,3.4-1.7,5.5s0.6,3.9,1.7,5.5c1.2-1.5,1.9-3.4,1.9-5.5
	C151.1,37.6,150.4,35.7,149.2,34.2z"/>
</svg>
